<svg xmlns="http://www.w3.org/2000/svg" width="24" height="36" viewBox="0 0 24 36" shape-rendering="crispEdges">
<rect x="0" y="0" width="3" height="3" fill="#000000"/>
<rect x="0" y="3" width="3" height="3" fill="#000000"/>
<rect x="3" y="3" width="3" height="3" fill="#000000"/>
<rect x="0" y="6" width="3" height="3" fill="#000000"/>
<rect x="3" y="6" width="3" height="3" fill="#ffffff"/>
<rect x="6" y="6" width="3" height="3" fill="#000000"/>
<rect x="0" y="9" width="3" height="3" fill="#000000"/>
<rect x="3" y="9" width="3" height="3" fill="#ffffff"/>
<rect x="6" y="9" width="3" height="3" fill="#ffffff"/>
<rect x="9" y="9" width="3" height="3" fill="#000000"/>
<rect x="0" y="12" width="3" height="3" fill="#000000"/>
<rect x="3" y="12" width="3" height="3" fill="#ffffff"/>
<rect x="6" y="12" width="3" height="3" fill="#ffffff"/>
<rect x="9" y="12" width="3" height="3" fill="#ffffff"/>
<rect x="12" y="12" width="3" height="3" fill="#000000"/>
<rect x="0" y="15" width="3" height="3" fill="#000000"/>
<rect x="3" y="15" width="3" height="3" fill="#ffffff"/>
<rect x="6" y="15" width="3" height="3" fill="#ffffff"/>
<rect x="9" y="15" width="3" height="3" fill="#ffffff"/>
<rect x="12" y="15" width="3" height="3" fill="#ffffff"/>
<rect x="15" y="15" width="3" height="3" fill="#000000"/>
<rect x="0" y="18" width="3" height="3" fill="#000000"/>
<rect x="3" y="18" width="3" height="3" fill="#ffffff"/>
<rect x="6" y="18" width="3" height="3" fill="#ffffff"/>
<rect x="9" y="18" width="3" height="3" fill="#ffffff"/>
<rect x="12" y="18" width="3" height="3" fill="#ffffff"/>
<rect x="15" y="18" width="3" height="3" fill="#ffffff"/>
<rect x="18" y="18" width="3" height="3" fill="#000000"/>
<rect x="0" y="21" width="3" height="3" fill="#000000"/>
<rect x="3" y="21" width="3" height="3" fill="#ffffff"/>
<rect x="6" y="21" width="3" height="3" fill="#ffffff"/>
<rect x="9" y="21" width="3" height="3" fill="#ffffff"/>
<rect x="12" y="21" width="3" height="3" fill="#ffffff"/>
<rect x="15" y="21" width="3" height="3" fill="#ffffff"/>
<rect x="18" y="21" width="3" height="3" fill="#ffffff"/>
<rect x="21" y="21" width="3" height="3" fill="#000000"/>
<rect x="0" y="24" width="3" height="3" fill="#000000"/>
<rect x="3" y="24" width="3" height="3" fill="#ffffff"/>
<rect x="6" y="24" width="3" height="3" fill="#ffffff"/>
<rect x="9" y="24" width="3" height="3" fill="#ffffff"/>
<rect x="12" y="24" width="3" height="3" fill="#000000"/>
<rect x="15" y="24" width="3" height="3" fill="#000000"/>
<rect x="18" y="24" width="3" height="3" fill="#000000"/>
<rect x="21" y="24" width="3" height="3" fill="#000000"/>
<rect x="0" y="27" width="3" height="3" fill="#000000"/>
<rect x="3" y="27" width="3" height="3" fill="#ffffff"/>
<rect x="6" y="27" width="3" height="3" fill="#000000"/>
<rect x="9" y="27" width="3" height="3" fill="#ffffff"/>
<rect x="12" y="27" width="3" height="3" fill="#ffffff"/>
<rect x="15" y="27" width="3" height="3" fill="#000000"/>
<rect x="0" y="30" width="3" height="3" fill="#000000"/>
<rect x="3" y="30" width="3" height="3" fill="#000000"/>
<rect x="9" y="30" width="3" height="3" fill="#000000"/>
<rect x="12" y="30" width="3" height="3" fill="#ffffff"/>
<rect x="15" y="30" width="3" height="3" fill="#ffffff"/>
<rect x="18" y="30" width="3" height="3" fill="#000000"/>
<rect x="9" y="33" width="3" height="3" fill="#000000"/>
<rect x="12" y="33" width="3" height="3" fill="#000000"/>
<rect x="15" y="33" width="3" height="3" fill="#000000"/>
<rect x="18" y="33" width="3" height="3" fill="#000000"/>
</svg>