<svg xmlns="http://www.w3.org/2000/svg" x="0px" y="0px"
width="50" height="50"
viewBox="0 0 172 172"
style=" fill:#000000;"><g fill="none" fill-rule="nonzero" stroke="none" stroke-width="1" stroke-linecap="butt" stroke-linejoin="miter" stroke-miterlimit="10" stroke-dasharray="" stroke-dashoffset="0" font-family="none" font-weight="none" font-size="none" text-anchor="none" style="mix-blend-mode: normal"><path d="M0,172v-172h172v172z" fill="none"></path><g><path d="M32.25,100.33333h10.75v50.16667h-10.75z" fill="#607d8b"></path><path d="M32.25,139.75h93.16667v10.75h-93.16667z" fill="#607d8b"></path><path d="M114.66667,100.33333h10.75v50.16667h-10.75zM53.75,121.83333h50.16667v10.75h-50.16667z" fill="#607d8b"></path><path d="M54.03907,101.26378l49.8787,5.36748l-1.15017,10.68829l-49.8787,-5.36748z" fill="#a68a6e"></path><path d="M132.11932,21.49955l7.64482,49.57713l-10.62797,1.63884l-7.64482,-49.57713z" fill="#ef6c00"></path><path d="M102.01766,29.51461l24.47844,43.78106l-9.38612,5.24788l-24.47844,-43.78106z" fill="#ff9800"></path><path d="M73.46246,52.14129l41.20591,28.60154l-6.13182,8.83404l-41.20591,-28.60154z" fill="#d38b28"></path><path d="M60.55606,76.03118l47.20193,16.97978l-3.64,10.11879l-47.20193,-16.97978z" fill="#c09553"></path></g></g></svg>